<?xml version="1.0" encoding="UTF-8" standalone="no"?>
<!DOCTYPE svg PUBLIC "-//W3C//DTD SVG 1.1//EN"
 "http://www.w3.org/Graphics/SVG/1.1/DTD/svg11.dtd">
<!-- Generated by graphviz version 2.38.0 (20140413.2041)
 -->
<!-- Title: G Pages: 1 -->
<svg width="390pt" height="298pt"
 viewBox="0.00 0.00 389.56 298.00" xmlns="http://www.w3.org/2000/svg" xmlns:xlink="http://www.w3.org/1999/xlink">
<g id="graph0" class="graph" transform="scale(1 1) rotate(0) translate(4 294)">
<title>G</title>
<polygon fill="white" stroke="none" points="-4,4 -4,-294 385.563,-294 385.563,4 -4,4"/>
<g id="clust1" class="cluster"><title>cluster_Global</title>
<path fill="none" stroke="gray" d="M242.35,-8C242.35,-8 361.563,-8 361.563,-8 367.563,-8 373.563,-14 373.563,-20 373.563,-20 373.563,-270 373.563,-270 373.563,-276 367.563,-282 361.563,-282 361.563,-282 242.35,-282 242.35,-282 236.35,-282 230.35,-276 230.35,-270 230.35,-270 230.35,-20 230.35,-20 230.35,-14 236.35,-8 242.35,-8"/>
<text text-anchor="middle" x="301.956" y="-269.2" font-family="Times,serif" font-size="11.00" fill="gray">Global</text>
</g>
<g id="clust2" class="cluster"><title>cluster_\Events</title>
<path fill="none" stroke="gray" d="M271.552,-130C271.552,-130 332.36,-130 332.36,-130 338.36,-130 344.36,-136 344.36,-142 344.36,-142 344.36,-243 344.36,-243 344.36,-249 338.36,-255 332.36,-255 332.36,-255 271.552,-255 271.552,-255 265.552,-255 259.552,-249 259.552,-243 259.552,-243 259.552,-142 259.552,-142 259.552,-136 265.552,-130 271.552,-130"/>
<text text-anchor="middle" x="301.956" y="-242.2" font-family="Times,serif" font-size="11.00" fill="gray">Events</text>
</g>
<g id="clust3" class="cluster"><title>cluster_\Grav</title>
<path fill="none" stroke="gray" d="M250.35,-16C250.35,-16 353.563,-16 353.563,-16 359.563,-16 365.563,-22 365.563,-28 365.563,-28 365.563,-110 365.563,-110 365.563,-116 359.563,-122 353.563,-122 353.563,-122 250.35,-122 250.35,-122 244.35,-122 238.35,-116 238.35,-110 238.35,-110 238.35,-28 238.35,-28 238.35,-22 244.35,-16 250.35,-16"/>
<text text-anchor="middle" x="301.956" y="-109.2" font-family="Times,serif" font-size="11.00" fill="gray">Grav</text>
</g>
<g id="clust4" class="cluster"><title>cluster_\Grav\Plugin</title>
<path fill="none" stroke="gray" d="M258.35,-24C258.35,-24 345.563,-24 345.563,-24 351.563,-24 357.563,-30 357.563,-36 357.563,-36 357.563,-83 357.563,-83 357.563,-89 351.563,-95 345.563,-95 345.563,-95 258.35,-95 258.35,-95 252.35,-95 246.35,-89 246.35,-83 246.35,-83 246.35,-36 246.35,-36 246.35,-30 252.35,-24 258.35,-24"/>
<text text-anchor="middle" x="301.956" y="-82.2" font-family="Times,serif" font-size="11.00" fill="gray">Plugin</text>
</g>
<!-- \\Events\\Events -->
<g id="node1" class="node"><title>\\Events\\Events</title>
<polygon fill="none" stroke="black" points="329.564,-228 274.348,-228 274.348,-192 329.564,-192 329.564,-228"/>
<text text-anchor="middle" x="301.956" y="-206.7" font-family="Courier,monospace" font-size="11.00">Events</text>
</g>
<!-- \\Events\\Calendar -->
<g id="node2" class="node"><title>\\Events\\Calendar</title>
<polygon fill="none" stroke="black" points="336.265,-174 267.647,-174 267.647,-138 336.265,-138 336.265,-174"/>
<text text-anchor="middle" x="301.956" y="-152.7" font-family="Courier,monospace" font-size="11.00">Calendar</text>
</g>
<!-- \\Grav\\Plugin\\EventsPlugin -->
<g id="node3" class="node"><title>\\Grav\\Plugin\\EventsPlugin</title>
<polygon fill="none" stroke="black" points="349.669,-68 254.243,-68 254.243,-32 349.669,-32 349.669,-68"/>
<text text-anchor="middle" x="301.956" y="-46.7" font-family="Courier,monospace" font-size="11.00">EventsPlugin</text>
</g>
<!-- \\Grav\\Common\\Plugin -->
<g id="node4" class="node"><title>\\Grav\\Common\\Plugin</title>
<ellipse fill="none" stroke="black" cx="91.1748" cy="-50" rx="91.3499" ry="18"/>
<text text-anchor="middle" x="91.1748" y="-45.8" font-family="Times,serif" font-size="14.00" fill="gray">\Grav\Common\Plugin</text>
</g>
<!-- \\Grav\\Plugin\\EventsPlugin&#45;&gt;\\Grav\\Common\\Plugin -->
<g id="edge1" class="edge"><title>\\Grav\\Plugin\\EventsPlugin&#45;&gt;\\Grav\\Common\\Plugin</title>
<path fill="none" stroke="black" d="M254.101,-50C235.835,-50 214.15,-50 192.684,-50"/>
<polygon fill="none" stroke="black" points="192.516,-46.5001 182.516,-50 192.516,-53.5001 192.516,-46.5001"/>
</g>
</g>
</svg>
